<svg xmlns="http://www.w3.org/2000/svg" version="1.0" preserveAspectRatio="xMidYMid meet" viewBox="97 68.85 105 158.6">
<metadata fill="#ffffff">
Created by potrace 1.10, written by Peter Selinger 2001-2011
</metadata>
<g transform="translate(0.000000,300.000000) scale(0.050000,-0.050000)" fill="#ffffff" stroke="none">
<path d="M2860 4290 l0 -333 161 134 c92 76 169 127 178 117 10 -10 22 -382 27 -828 l10 -810 47 0 47 0 5 830 5 830 -115 92 c-63 50 -171 139 -240 197 l-125 104 0 -333z" fill="#ffffff"/>
<path d="M3102 4053 c-12 -15 -116 -99 -231 -185 l-209 -158 -1 -475 -1 -475 60 0 60 0 0 458 c0 465 3 482 72 482 4 0 8 -211 8 -470 l0 -470 50 0 50 0 0 517 c0 493 2 519 40 553 l41 37 -6 -589 -5 -588 -186 7 -187 8 7 -68 c3 -38 17 -66 31 -65 14 1 124 3 245 5 l220 3 0 750 c0 717 -5 786 -58 723z" fill="#ffffff"/>
<path d="M2019 2331 c17 -20 22 -98 18 -250 l-7 -221 60 0 60 0 0 250 0 250 -77 0 c-66 0 -74 -4 -54 -29z" fill="#ffffff"/>
<path d="M2258 2332 c28 -33 8 -408 -23 -447 -15 -19 -4 -25 45 -25 54 0 62 6 48 35 -19 43 -34 232 -25 325 l7 67 180 -200 c224 -249 213 -249 224 7 5 118 18 226 30 240 16 20 7 26 -42 26 -57 0 -61 -4 -42 -40 12 -23 19 -101 16 -174 l-6 -132 -150 172 c-132 152 -158 173 -217 173 -56 1 -64 -4 -45 -27z" fill="#ffffff"/>
<path d="M2831 2338 c21 -33 10 -399 -13 -441 -17 -32 -11 -37 41 -37 60 0 81 26 41 50 -11 7 -20 95 -20 196 l0 184 185 -193 c227 -237 291 -266 543 -253 457 24 545 516 92 516 -323 0 -394 -316 -89 -392 l59 -15 -75 71 c-169 159 -34 387 174 293 73 -33 114 -108 114 -206 0 -241 -293 -329 -542 -164 l-73 48 18 148 c10 81 26 163 36 182 16 30 9 35 -43 35 -54 0 -58 -4 -40 -39 12 -21 21 -100 21 -175 l0 -136 -162 175 c-133 145 -172 175 -221 175 -38 0 -55 -8 -46 -22z" fill="#ffffff"/>
<path d="M1940 1729 c0 -24 8 -26 39 -10 89 48 105 30 98 -109 -6 -119 -4 -130 33 -130 37 0 39 11 33 133 l-7 133 62 -13 c35 -7 62 -4 62 8 0 11 -69 19 -160 19 -131 0 -160 -6 -160 -31z" fill="#ffffff"/>
<path d="M2350 1737 c-100 -55 -116 -133 -41 -208 60 -60 166 -65 231 -13 130 105 -41 303 -190 221z m126 -28 c52 -37 61 -150 14 -189 -43 -35 -119 -9 -147 50 -52 115 36 206 133 139z" fill="#ffffff"/>
<path d="M2657 1617 l69 -143 44 87 45 87 39 -89 39 -89 56 110 c31 61 69 126 86 145 29 32 28 35 -12 35 -27 0 -43 -13 -44 -35 0 -19 -17 -66 -37 -103 l-36 -68 -37 103 c-26 72 -48 103 -73 103 -41 0 -46 -22 -13 -55 17 -17 16 -39 -3 -86 l-27 -63 -36 67 c-19 37 -36 83 -36 102 -1 23 -17 35 -47 35 -46 0 -46 0 23 -143z" fill="#ffffff"/>
<path d="M3090 1620 l0 -140 135 0 c74 0 135 7 135 15 0 8 -42 12 -92 8 -93 -7 -127 12 -128 75 0 21 22 25 90 17 68 -8 90 -3 90 18 0 21 -19 24 -77 15 -87 -14 -113 8 -92 75 12 38 24 41 111 30 57 -6 98 -3 98 8 0 10 -61 19 -135 19 l-135 0 0 -140z" fill="#ffffff"/>
<path d="M3400 1620 c0 -120 5 -140 35 -140 30 0 34 17 28 130 l-6 130 60 0 c139 0 159 -146 23 -164 -98 -13 172 -124 303 -125 221 -1 271 133 72 195 -63 20 -115 45 -115 55 0 34 102 45 156 17 30 -15 61 -30 69 -34 8 -4 15 6 15 22 0 53 -158 72 -249 31 -88 -40 -65 -92 59 -128 161 -47 169 -130 13 -129 -126 1 -261 74 -207 112 104 73 19 168 -150 168 l-106 0 0 -140z" fill="#ffffff"/>
</g>
</svg>